<?xml version="1.0" standalone="no"?>
<!DOCTYPE svg PUBLIC "-//W3C//DTD SVG 20010904//EN"
 "http://www.w3.org/TR/2001/REC-SVG-20010904/DTD/svg10.dtd">
<svg version="1.0" xmlns="http://www.w3.org/2000/svg"
 width="401.000000pt" height="303.000000pt" viewBox="0 0 401.000000 303.000000"
 preserveAspectRatio="xMidYMid meet">

<g transform="translate(0.000000,303.000000) scale(0.100000,-0.100000)"
fill="#000000" stroke="none">
<path d="M947 2844 c-188 -42 -337 -118 -467 -241 -218 -205 -321 -459 -308
-756 12 -238 78 -397 273 -647 179 -230 403 -531 461 -620 27 -41 88 -151 135
-244 l87 -169 90 179 c50 98 98 188 106 199 14 18 15 4 16 -152 0 -166 1 -173
20 -173 19 0 20 7 20 95 l0 95 100 0 c93 0 100 1 100 20 0 19 -7 20 -100 20
l-100 0 0 80 0 80 120 0 c99 0 120 3 120 15 0 12 -22 15 -116 17 l-117 3 155
205 c85 113 204 269 264 347 130 169 166 227 210 337 53 134 67 226 62 400 -5
134 -9 162 -37 246 -86 264 -259 466 -495 580 -144 70 -232 91 -396 96 -96 3
-154 -1 -203 -12z m236 -45 c5 -9 7 -27 3 -42 -6 -24 -11 -26 -83 -32 -345
-29 -623 -238 -742 -556 -29 -77 -51 -182 -51 -249 -1 -64 -16 -90 -53 -90
-35 0 -41 27 -34 139 11 165 97 373 216 519 97 118 293 246 448 291 130 39
278 48 296 20z m105 -155 c266 -54 488 -264 573 -544 33 -107 33 -301 1 -413
-75 -263 -284 -473 -537 -542 -96 -26 -246 -31 -345 -11 -292 58 -546 313
-599 601 -16 83 -13 259 4 333 57 242 237 452 465 542 127 50 295 63 438 34z"/>
<path d="M810 2434 c0 -3 36 -66 80 -141 44 -74 80 -139 80 -145 0 -5 -21 17
-47 49 -146 180 -168 204 -171 195 -2 -6 33 -73 78 -148 44 -75 79 -138 77
-140 -3 -3 -157 201 -189 250 -4 6 -10 7 -13 4 -12 -11 134 -301 163 -326 15
-12 54 -36 87 -52 33 -16 79 -48 102 -72 l42 -43 -64 -95 c-68 -101 -167 -206
-225 -237 -39 -21 -80 -90 -80 -134 0 -39 32 -63 74 -55 49 9 92 62 105 129 7
29 25 82 42 117 30 64 154 250 167 250 12 0 123 -163 158 -233 19 -37 40 -91
48 -120 21 -78 36 -105 71 -127 41 -26 70 -25 96 1 39 39 3 136 -64 171 -57
29 -154 131 -225 236 -34 51 -62 97 -62 101 0 18 115 101 154 112 137 36 243
173 254 329 4 63 3 70 -21 94 -85 85 -297 -44 -354 -214 -7 -19 -11 -69 -10
-110 1 -60 -3 -85 -22 -125 l-23 -50 -20 45 c-11 25 -23 77 -27 115 -5 39 -15
84 -22 102 -8 17 -61 86 -119 152 -94 109 -120 133 -120 115z"/>
<path d="M1792 1842 c-3 -43 -35 -155 -63 -217 -96 -216 -320 -383 -567 -425
-38 -6 -41 -8 -15 -9 70 -2 189 29 283 75 128 64 225 160 292 290 50 98 82
217 75 280 -3 36 -4 37 -5 6z"/>
<path d="M2620 558 l0 -92 -31 30 c-26 25 -38 29 -89 29 -48 0 -63 -4 -85 -25
-111 -102 -40 -302 102 -287 26 3 57 15 78 31 l35 27 0 -24 c0 -14 7 -28 16
-31 9 -4 17 -5 18 -4 1 2 0 101 -2 221 -4 206 -5 217 -23 217 -17 0 -19 -8
-19 -92z m-66 -72 c48 -20 66 -51 66 -116 0 -65 -18 -96 -66 -116 -46 -19
-100 -1 -132 46 -43 63 -16 162 53 190 29 12 42 12 79 -4z"/>
<path d="M3400 625 c0 -16 6 -25 15 -25 9 0 15 9 15 25 0 16 -6 25 -15 25 -9
0 -15 -9 -15 -25z"/>
<path d="M3770 558 l0 -91 -22 20 c-57 52 -128 59 -178 17 -43 -37 -60 -75
-60 -137 0 -44 5 -62 30 -95 49 -68 146 -81 204 -27 24 22 26 22 26 5 0 -16
38 -49 43 -38 1 2 1 101 -1 221 -3 207 -4 217 -23 217 -17 0 -19 -8 -19 -92z
m-66 -73 c43 -21 66 -63 66 -123 0 -59 -24 -95 -74 -112 -40 -13 -88 3 -120
39 -30 33 -33 112 -7 155 32 52 81 66 135 41z"/>
<path d="M2834 614 c-68 -46 -95 -100 -96 -186 0 -99 62 -183 156 -209 46 -13
90 -4 139 27 l37 24 0 -25 c0 -16 6 -25 15 -25 12 0 15 18 15 100 l0 100 -60
0 c-47 0 -60 -3 -60 -15 0 -11 12 -15 45 -15 44 0 45 -1 45 -33 0 -52 -67
-107 -130 -107 -142 0 -216 186 -119 303 56 68 153 71 216 7 27 -27 31 -29 43
-15 11 13 9 20 -11 41 -37 40 -73 54 -137 54 -47 0 -67 -5 -98 -26z"/>
<path d="M1720 508 c-57 -39 -75 -72 -75 -138 0 -66 18 -99 75 -137 68 -47
172 -16 210 62 26 54 25 102 -3 155 -41 77 -138 104 -207 58z m127 -28 c87
-53 79 -187 -14 -226 -127 -54 -211 145 -94 223 41 28 66 29 108 3z"/>
<path d="M2080 511 c-41 -22 -80 -89 -80 -139 0 -121 136 -204 230 -139 57 38
75 71 75 137 0 66 -18 99 -75 138 -41 27 -102 29 -150 3z m128 -31 c89 -54 73
-202 -25 -229 -103 -29 -182 97 -120 190 40 60 89 73 145 39z"/>
<path d="M3180 375 c0 -148 1 -155 20 -155 19 0 20 7 20 90 0 62 5 100 15 120
15 30 61 60 90 60 8 0 15 9 15 20 0 36 -57 20 -97 -28 l-23 -27 0 38 c0 30 -4
37 -20 37 -19 0 -20 -7 -20 -155z"/>
<path d="M3400 375 c0 -131 2 -155 15 -155 13 0 15 24 15 155 0 131 -2 155
-15 155 -13 0 -15 -24 -15 -155z"/>
</g>
</svg>
